<svg xmlns="http://www.w3.org/2000/svg" width="940" height="640" viewBox="0 0 940 640" font-family="system-ui,sans-serif">
<rect width="940" height="640" fill="#ffffff"/>
<text x="70" y="30" font-size="16" font-weight="600">RQ0 — proyeccion 2-D de los 24 DOCUMENTOS, coloreada por tipo_documento</text>
<text x="70" y="50" font-size="12" fill="#b00020">EXPLORATORIA — tsne sobre 24 puntos no es una prueba estadistica. La distancia visual no mide separabilidad.</text>
<circle cx="454.5" cy="246.1" r="6" fill="#1f77b4" fill-opacity="0.75" stroke="#333" stroke-width="0.5"/>
<text x="462.5" y="249.1" font-size="8" fill="#444">DOC-0001</text>
<circle cx="556.8" cy="240.2" r="6" fill="#1f77b4" fill-opacity="0.75" stroke="#333" stroke-width="0.5"/>
<text x="564.8" y="243.2" font-size="8" fill="#444">DOC-0002</text>
<circle cx="368.3" cy="145.5" r="6" fill="#393b79" fill-opacity="0.75" stroke="#333" stroke-width="0.5"/>
<text x="376.3" y="148.5" font-size="8" fill="#444">DOC-0003</text>
<circle cx="149.6" cy="456.5" r="6" fill="#d62728" fill-opacity="0.75" stroke="#333" stroke-width="0.5"/>
<text x="157.6" y="459.5" font-size="8" fill="#444">DOC-0004</text>
<circle cx="292.9" cy="485.4" r="6" fill="#d62728" fill-opacity="0.75" stroke="#333" stroke-width="0.5"/>
<text x="300.9" y="488.4" font-size="8" fill="#444">DOC-0005</text>
<circle cx="570.3" cy="306.4" r="6" fill="#bcbd22" fill-opacity="0.75" stroke="#333" stroke-width="0.5"/>
<text x="578.3" y="309.4" font-size="8" fill="#444">DOC-0006</text>
<circle cx="288.9" cy="434.9" r="6" fill="#d62728" fill-opacity="0.75" stroke="#333" stroke-width="0.5"/>
<text x="296.9" y="437.9" font-size="8" fill="#444">DOC-0007</text>
<circle cx="302.1" cy="521.8" r="6" fill="#d62728" fill-opacity="0.75" stroke="#333" stroke-width="0.5"/>
<text x="310.1" y="524.8" font-size="8" fill="#444">DOC-0008</text>
<circle cx="337.1" cy="120.7" r="6" fill="#393b79" fill-opacity="0.75" stroke="#333" stroke-width="0.5"/>
<text x="345.1" y="123.7" font-size="8" fill="#444">DOC-0009</text>
<circle cx="488.3" cy="102.2" r="6" fill="#393b79" fill-opacity="0.75" stroke="#333" stroke-width="0.5"/>
<text x="496.3" y="105.2" font-size="8" fill="#444">DOC-0010</text>
<circle cx="445.8" cy="127.6" r="6" fill="#393b79" fill-opacity="0.75" stroke="#333" stroke-width="0.5"/>
<text x="453.8" y="130.6" font-size="8" fill="#444">DOC-0011</text>
<circle cx="522.7" cy="134.7" r="6" fill="#9467bd" fill-opacity="0.75" stroke="#333" stroke-width="0.5"/>
<text x="530.7" y="137.7" font-size="8" fill="#444">DOC-0012</text>
<circle cx="515.0" cy="269.5" r="6" fill="#393b79" fill-opacity="0.75" stroke="#333" stroke-width="0.5"/>
<text x="523.0" y="272.5" font-size="8" fill="#444">DOC-0013</text>
<circle cx="630.0" cy="248.0" r="6" fill="#393b79" fill-opacity="0.75" stroke="#333" stroke-width="0.5"/>
<text x="638.0" y="251.0" font-size="8" fill="#444">DOC-0014</text>
<circle cx="196.4" cy="405.2" r="6" fill="#17becf" fill-opacity="0.75" stroke="#333" stroke-width="0.5"/>
<text x="204.4" y="408.2" font-size="8" fill="#444">DOC-0015</text>
<circle cx="228.8" cy="462.3" r="6" fill="#d62728" fill-opacity="0.75" stroke="#333" stroke-width="0.5"/>
<text x="236.8" y="465.3" font-size="8" fill="#444">DOC-0016</text>
<circle cx="415.2" cy="276.8" r="6" fill="#bcbd22" fill-opacity="0.75" stroke="#333" stroke-width="0.5"/>
<text x="423.2" y="279.8" font-size="8" fill="#444">DOC-0017</text>
<circle cx="423.0" cy="314.5" r="6" fill="#e377c2" fill-opacity="0.75" stroke="#333" stroke-width="0.5"/>
<text x="431.0" y="317.5" font-size="8" fill="#444">DOC-0018</text>
<circle cx="386.2" cy="90.0" r="6" fill="#7f7f7f" fill-opacity="0.75" stroke="#333" stroke-width="0.5"/>
<text x="394.2" y="93.0" font-size="8" fill="#444">DOC-0019</text>
<circle cx="114.0" cy="496.7" r="6" fill="#ff7f0e" fill-opacity="0.75" stroke="#333" stroke-width="0.5"/>
<text x="122.0" y="499.7" font-size="8" fill="#444">DOC-0020</text>
<circle cx="70.0" cy="471.1" r="6" fill="#d62728" fill-opacity="0.75" stroke="#333" stroke-width="0.5"/>
<text x="78.0" y="474.1" font-size="8" fill="#444">DOC-0021</text>
<circle cx="201.4" cy="491.5" r="6" fill="#d62728" fill-opacity="0.75" stroke="#333" stroke-width="0.5"/>
<text x="209.4" y="494.5" font-size="8" fill="#444">DOC-0022</text>
<circle cx="127.4" cy="570.0" r="6" fill="#8c564b" fill-opacity="0.75" stroke="#333" stroke-width="0.5"/>
<text x="135.4" y="573.0" font-size="8" fill="#444">DOC-0023</text>
<circle cx="152.6" cy="537.4" r="6" fill="#2ca02c" fill-opacity="0.75" stroke="#333" stroke-width="0.5"/>
<text x="160.6" y="540.4" font-size="8" fill="#444">DOC-0024</text>
<text x="715" y="56" font-size="11" font-weight="600">clases</text>
<rect x="715" y="62" width="10" height="10" fill="#1f77b4"/><text x="731" y="71" font-size="11">decreto</text>
<rect x="715" y="80" width="10" height="10" fill="#d62728"/><text x="731" y="89" font-size="11">estado_contable</text>
<rect x="715" y="98" width="10" height="10" fill="#2ca02c"/><text x="731" y="107" font-size="11">informe_calificacion</text>
<rect x="715" y="116" width="10" height="10" fill="#9467bd"/><text x="731" y="125" font-size="11">ley</text>
<rect x="715" y="134" width="10" height="10" fill="#ff7f0e"/><text x="731" y="143" font-size="11">memoria_anual</text>
<rect x="715" y="152" width="10" height="10" fill="#8c564b"/><text x="731" y="161" font-size="11">presentacion_corporativa</text>
<rect x="715" y="170" width="10" height="10" fill="#e377c2"/><text x="731" y="179" font-size="11">procedimiento_regulatorio</text>
<rect x="715" y="188" width="10" height="10" fill="#17becf"/><text x="731" y="197" font-size="11">prospecto_financiero</text>
<rect x="715" y="206" width="10" height="10" fill="#bcbd22"/><text x="731" y="215" font-size="11">resolucion</text>
<rect x="715" y="224" width="10" height="10" fill="#7f7f7f"/><text x="731" y="233" font-size="11">resolucion_general</text>
<rect x="715" y="242" width="10" height="10" fill="#393b79"/><text x="731" y="251" font-size="11">texto_ordenado</text>
</svg>